<svg width="30" height="31" viewBox="0 0 30 31" fill="none" xmlns="http://www.w3.org/2000/svg">
<rect width="30" height="31" fill="#C4C4C4"/>
<rect x="1.25" y="28.4167" width="25.1875" height="27.5" rx="3" transform="rotate(-90 1.25 28.4167)" stroke="white" stroke-width="3" stroke-linecap="round" stroke-linejoin="round"/>
<mask id="path-3-inside-1" fill="white">
<rect x="5.625" y="23.25" width="8.39583" height="8.125" rx="2" transform="rotate(-90 5.625 23.25)"/>
</mask>
<rect x="5.625" y="23.25" width="8.39583" height="8.125" rx="2" transform="rotate(-90 5.625 23.25)" stroke="white" stroke-width="6" mask="url(#path-3-inside-1)"/>
<mask id="path-4-inside-2" fill="white">
<rect x="15.625" y="23.25" width="8.39583" height="8.125" rx="2" transform="rotate(-90 15.625 23.25)"/>
</mask>
<rect x="15.625" y="23.25" width="8.39583" height="8.125" rx="2" transform="rotate(-90 15.625 23.25)" stroke="white" stroke-width="6" mask="url(#path-4-inside-2)"/>
<line x1="2" y1="9.5" x2="29" y2="9.5" stroke="white" stroke-width="3"/>
<line x1="1.5" y1="-1.5" x2="3.5" y2="-1.5" transform="matrix(0 -1 -1 0 7 6)" stroke="white" stroke-width="3" stroke-linecap="round"/>
<path d="M22 5V2" stroke="white" stroke-width="3" stroke-linecap="round"/>
</svg>
